<svg xmlns="http://www.w3.org/2000/svg" viewBox="0 0 399.56 114.56"><defs><style>.cls-1{fill:#fff;}</style></defs><title>Asset 1</title><g id="Layer_2" data-name="Layer 2"><g id="Layer_1-2" data-name="Layer 1"><g id="logos"><g id="simple-white"><g id="logo"><path id="Shape" class="cls-1" d="M112,58.43a56,56,0,1,0-56,56.12,56.06,56.06,0,0,0,56-56.12Zm-1.46,0A54.52,54.52,0,1,1,56,3.81a54.66,54.66,0,0,1,54.54,54.63Zm-2.76-.89-3-1.47,2.76-1.74V51.93l-4.75,3.21-3.18.17v2.08l3.18-.19,5.08,2.6Zm-2.51-8,1.69-.42-1.52-6.17-1.71.42.52,2.08L98,46.94l.5,2,6.19-1.52Zm-8.56-6.76,7.51-3.07-.77-1.91-7.51,3.07Zm3-8,1.69-.78v-.22A6,6,0,0,0,100.7,32,2.59,2.59,0,0,0,97,30.86a2.77,2.77,0,0,0-1,3.1c0,.78.17,1.22-.17,1.41s-.91-.17-1.13-.55a3.3,3.3,0,0,1-.41-1.55v-.42l-1.85.86v.42a6,6,0,0,0,.69,1.69,3,3,0,0,0,2.46,1.74A2.48,2.48,0,0,0,96.89,37a2.77,2.77,0,0,0,1-3.18c0-.69-.17-1.14,0-1.3a.83.83,0,0,1,.41,0,.94.94,0,0,1,.72.5,3.8,3.8,0,0,1,.44,1.36Zm-4.81-7c1.74-1.55.36-3.13-.66-4.32l-1.33-1.52-6.11,5.37,1.35,1.55,2.35-2.08V27c.3.36.3.5,0,1l-1.27,2.41L90.78,32l1.63-3.24a2.25,2.25,0,0,0,.22-.66,2,2,0,0,0,2.13-.36Zm-1.44-1.94a.58.58,0,0,1-.25.42.66.66,0,0,1-.44.19c-.33,0-.72-.36-1-.66v-.17l1.11-1,.14.17c.28.33.58.72.55,1Zm-4.83-5.54,1.08-1.38-3.9-3-5,6.42,3.92,3.07L85.84,24l-2.32-1.8,1-1.25,2.1,1.63,1.08-1.38-2.1-1.63.8-1Zm-12-.55,6.08-6-1.85-.94-3.92,4,.86-5.54-2-1-1,8.58ZM70.09,17,72.52,9.2l-2-.64-2.43,7.78Zm-4.75-1.44,1.08-8.08-2-.28-.64,4.76L62.08,6.85l-2.27-.3-1.08,8.08,2,.28.64-4.76,1.77,5.09ZM55.86,17.4a41,41,0,1,0,.14,0Zm39.67,41A39.52,39.52,0,1,1,56,18.81,39.62,39.62,0,0,1,95.53,58.43ZM82.72,66.19V30.75h-53v34.8c0,8.08,4.53,15.92,13.1,22.7a61.5,61.5,0,0,0,12.93,7.81l.47.19.5-.19a64.23,64.23,0,0,0,12.87-7.81c8.56-6.73,13.1-14.37,13.1-22.15ZM57.16,60.7l.47-.17a7.55,7.55,0,0,1,2.15,0l1.88.19c1,0,2,.19,2.76.22h2.62V77.57H65.23a16.89,16.89,0,0,1-3.59-.22,31.32,31.32,0,0,0-3.34-.19,2.9,2.9,0,0,0-1.19.25ZM32.3,53.64H55.12v5a9.07,9.07,0,0,0-2.57,0l-1.91.19c-1,0-1.91.19-2.76.22H43.46v4.85H41.19v2.77h2.27v4.85H41.19v2.63h2.27v5.4H47.1c1.49,0,2.76-.14,3.7-.22s1.91-.17,3.09-.17a.91.91,0,0,1,.88.47V93C49.26,90.25,32,80.58,32,65.6ZM54.15,77.15h0a20.21,20.21,0,0,0-3.29.17,25.34,25.34,0,0,1-3.59.22H45.45V60.92h2.62a11.12,11.12,0,0,0,2.76-.25l1.91-.19a7.86,7.86,0,0,1,2.1,0h.25V77.09a2.76,2.76,0,0,0-.94-.17ZM80.26,50.9h-48v-18h48.1Zm0,15c0,14.51-17.79,24.34-23,26.91V79.56l.25-.28a1,1,0,0,1,.94-.5,18.83,18.83,0,0,1,3.15.17,26.2,26.2,0,0,0,3.7.22c1.6,0,2.76,0,2.76,0h.88V74.24H71V71.47H69V66.71h2.07V64.08H69v-4.9H64.54A13.36,13.36,0,0,1,61.77,59l-1.88-.19a9.37,9.37,0,0,0-2.76,0h0V53.64H80.31ZM38.82,35.67v8.11a3.85,3.85,0,0,0,2,2.77c1.6,1.08,4,2.49,4.12,2.57l.47.28.47-.25s2.76-1.47,4.34-2.57a4.11,4.11,0,0,0,1.93-2.77V34.76H38.87Zm11.52,3.38H40.75V36.62h9.61v2.44Zm-9.61,1.88h9.64V43.7A3.49,3.49,0,0,1,49.26,45a33.48,33.48,0,0,1-3.73,2.22c-.77-.47-2.4-1.44-3.56-2.24s-1.19-1-1.22-1.36,0-1.25,0-2.77Zm20.64-5.62v8.31a4,4,0,0,0,2.1,2.77C65.12,47.5,67.58,49,67.69,49l.47.28.47-.25a49.88,49.88,0,0,0,4.45-2.77,4.42,4.42,0,0,0,2-2.77c0-.28,0-4.65,0-8.31v-.94H61.25ZM63.24,43,68,39.8l5.19,3.46v.55c0,.5-.64,1-1.13,1.36-1.19.8-3,1.83-3.84,2.3-.8-.47-2.49-1.5-3.67-2.3-.36-.25-1.22-.89-1.27-1.44V43Zm0-6.53h9.92V41l-5.22-3.49-4.7,3.41V36.48ZM53.18,69.73V67.85H47.57v1.88h5.61Zm.06-5.23V62.61H47.55V64.5h5.69Zm-3,8.8H47.46v1.88h5.69V73H51.75a15,15,0,0,1-1.52,0Zm9.64-10.91h-.69v1.88h5.69V62.39h-5ZM65,69.78V67.9H59.18v1.88H65ZM59.84,73h-.69v1.88h5.69V73h-5ZM55,13.88a3.11,3.11,0,0,0,.61-2.35l-.33-5-2,.17.39,4.65c0,1.63-.52,1.91-1.11,2h-.14c-.47,0-1.13-.19-1.27-1.77l-.39-4.65-2,.17.39,5a2.77,2.77,0,0,0,3.07,2.77h.52a3.48,3.48,0,0,0,2.46-1.05ZM39.34,18,44,16.26,43.4,14.6l-2.76,1-2.15-6-1.93.69Zm-2.15.91-.86-1.55-2.51,1.41-3.12-5.54-1.8,1,4,7.09ZM26.14,22.16l2.07-1.69L27.1,19.12,25,20.81l-.83-1L26.47,18,25.36,16.6l-3.84,3.13L26.66,26l3.87-3.16L29.42,21.5l-2.27,1.86Zm-1.69,5.9-6.24-5.21L16.94,24.4l3.67,3.07-5.22-1.22L13.92,28l6.24,5.21,1.27-1.55-3.76-3,5.22,1.19ZM13.56,32.82a2.51,2.51,0,0,0-1.16-.33c-1.33,0-2,1.33-2.76,2.49L8.7,36.75l7.18,3.82,1-1.83-2.76-1.5v-.17c.25-.5.47-.44.88-.39l2.76.36,1.08-2-3.59-.39a2.51,2.51,0,0,0-.69,0,2,2,0,0,0-1.11-1.88Zm-.66,2.27a1.77,1.77,0,0,1-.3,1.14v.19l-1.3-.69v-.19c.33-.61.69-1.11,1.24-.8a.69.69,0,0,1,.36.39ZM9.45,41.52A3.62,3.62,0,0,0,5.8,44.28a3.79,3.79,0,0,0,2.93,5,5.68,5.68,0,0,0,1.49.22,3.62,3.62,0,0,0,3.62-2.77,3.83,3.83,0,0,0-.25-3,4.31,4.31,0,0,0-2.76-2,5.51,5.51,0,0,0-1.44-.22Zm-.06,2.13a3.86,3.86,0,0,1,1,.14A2.76,2.76,0,0,1,12.13,45a1.58,1.58,0,0,1,0,1.25,1.71,1.71,0,0,1-1.8,1.25,3.89,3.89,0,0,1-1.08-.17C8.18,47,7.07,46.2,7.43,44.89a1.71,1.71,0,0,1,1.82-1.22Zm-2.9,8.64L4.59,52v.19A5.16,5.16,0,0,0,4.14,54a4,4,0,0,0,4,4.65h.3a3.84,3.84,0,0,0,4-4.13,7.77,7.77,0,0,0,0-1.8v-.22H10.53l.19.42a3.86,3.86,0,0,1,.19,1.52,2.21,2.21,0,0,1-2.54,2.1,2.24,2.24,0,0,1-2.32-2.38,2.77,2.77,0,0,1,.47-1.44ZM13.37,68,5.72,70.26l.58,2,3.18-.91.72,2.46,1.69-.47-.69-2.46,1.24-.36.75,2.57,1.69-.5ZM9.14,78.23a3.88,3.88,0,0,0,.3,3,3.67,3.67,0,0,0,3.37,2.27A4.88,4.88,0,0,0,15,83a4.29,4.29,0,0,0,2.29-2.41,3.88,3.88,0,0,0-.3-3,3.67,3.67,0,0,0-3.34-2.27,4.85,4.85,0,0,0-2.15.55,4.32,4.32,0,0,0-2.32,2.41Zm1.77,1a2.77,2.77,0,0,1,1.52-1.47,3.31,3.31,0,0,1,1.41-.36,1.72,1.72,0,0,1,1.66,2.22A2.77,2.77,0,0,1,14,81.08a3.42,3.42,0,0,1-1.49.39A1.6,1.6,0,0,1,11,80.53a1.58,1.58,0,0,1,0-1.25Zm5.17,7.25a3,3,0,0,0-1.3,2.22,3.6,3.6,0,0,0,.94,2.38,2.76,2.76,0,0,0,4.53.69l4-3.18L23,87l-3.65,2.77c-1,.78-1.69.86-2.24.14a1.14,1.14,0,0,1-.3-.86,2.21,2.21,0,0,1,.94-1.3l3.62-2.77L20,83.3Zm10.11,4.07-5.14,6.31,1.55,1.27,3-3.71-1.13,5.29,1.77,1.47,5.14-6.31L29.86,93.6l-3,3.71L28,92Zm7.6,5.81-3.65,7.28,2.1,1.05a6,6,0,0,0,2.76.75,3.59,3.59,0,0,0,3.29-2.3c1.22-2.41.44-4.35-2.32-5.73Zm-1,6.65,2.07-4.13.5.25a2.21,2.21,0,0,1,1.11,1.27,2.36,2.36,0,0,1-.17,1.77,2.21,2.21,0,0,1-2,1.33,2.15,2.15,0,0,1-1-.25Zm9.67-2.77-2.1,7.86,4.86,1.3.44-1.69-2.76-.78.39-1.52,2.6.69.47-1.69-2.6-.69.33-1.25,2.76.75.47-1.69ZM50,102l-.44,8.14h2.85a3.76,3.76,0,0,0,4.31-3.82,3.94,3.94,0,0,0-.86-3A4.88,4.88,0,0,0,52.33,102Zm1.71,6.51.28-4.62h.55a2.33,2.33,0,0,1-.25,4.62Zm12-6.89-1.38,8.61,2.13-.47.28-1.83,2.62-.58,1,1.58,2.24-.5-4.81-7.28Zm1.38,4.6.25-2.13,1.11,1.83Zm8.29-1-1.93.72.72,2,2-.69Zm0-6.42L77.27,106l2-1.14c2.76-1.47,3.43-3.41,2.13-5.79s-3.32-2.77-6-1.38Zm2.76.55.5-.28a2.18,2.18,0,0,1,1-.28,2.24,2.24,0,0,1,2,1.25,2.19,2.19,0,0,1-.83,3.07l-.5.28Zm8.67-.3-1.71,1.19L84.32,102l1.52-1.3Zm1.19-6,1.77.25L87.94,92l3.87,3.93,1.46-1.47-5.69-5.79-1.22,1.22Zm7.07-4.76a2.16,2.16,0,0,0,.86,2,2.35,2.35,0,0,0,1.41.5,3,3,0,0,0,2.32-1.41,3.11,3.11,0,0,0,.72-2.24,2.38,2.38,0,0,0-1-1.55,2.26,2.26,0,0,0-2.29-.25,2.33,2.33,0,0,0-.88-1.86c-1-.75-2.38-.33-3.34,1a2.33,2.33,0,0,0,.25,3.52,2.1,2.1,0,0,0,2,.25Zm1.77-.8c.58-.39,1-.44,1.38-.17a.69.69,0,0,1,.3.47.88.88,0,0,1-1.33.83,1,1,0,0,1-.33-1.14ZM93.6,86.2a1.77,1.77,0,0,1-.86.33.55.55,0,0,1-.33,0,.72.72,0,0,1,0-1,.58.58,0,0,1,.5-.28.75.75,0,0,1,.44.17,1,1,0,0,1,.3.91ZM98,82.44a5.32,5.32,0,0,0,2.35.69,2.46,2.46,0,0,0,2.1-1.8A2.77,2.77,0,0,0,101,77.48a2.37,2.37,0,0,0-3.43,1.08,2.05,2.05,0,0,0-.22,1.11,1.47,1.47,0,0,1-.55-1.86,2.93,2.93,0,0,1,.77-1l.28-.25-1.49-1.08-.17.17a5,5,0,0,0-1,1.38A3,3,0,0,0,95,79.42a5.34,5.34,0,0,0,2.76,2.77Zm.86-2.35a.58.58,0,0,1,0-.47.64.64,0,0,1,.61-.36,1.68,1.68,0,0,1,.75.19,1.3,1.3,0,0,1,.69.66.58.58,0,0,1,0,.44.64.64,0,0,1-.64.39,1.46,1.46,0,0,1-.66-.19,1.38,1.38,0,0,1-.75-.69Zm4.31-6-.25.33,1.91.64v-.22a8.32,8.32,0,0,0,.75-1.69,3.41,3.41,0,0,0,0-2.55,2.77,2.77,0,0,0-5.19.83l-.94-.3.83-2.77L98.6,67.9l-1.38,4.71,4.5,1.44v-.39a4.38,4.38,0,0,1,.17-1.27c0-.39.52-1.36,1.41-1.11s.72,1.27.64,1.58a3.66,3.66,0,0,1-.75,1.27Z"/><g id="cornell-tech"><path id="Shape-2" data-name="Shape" class="cls-1" d="M149.63,47.36a17,17,0,0,1-12.47-4.93C132.46,37.78,132.6,32,132.6,24s0-13.62,4.56-18.41A17,17,0,0,1,149.63.55a16.36,16.36,0,0,1,17,14.6h-9.17a7.64,7.64,0,0,0-7.81-6.54A7.49,7.49,0,0,0,143.9,11c-1.75,1.93-2.27,4.14-2.27,13s.52,11.08,2.27,13a7.49,7.49,0,0,0,5.79,2.4,7.66,7.66,0,0,0,7.81-6.56h9.17a16.36,16.36,0,0,1-17,14.6"/><path id="Shape-3" data-name="Shape" class="cls-1" d="M194,10.55a7.54,7.54,0,0,0-5.81-2.48,7.7,7.7,0,0,0-5.87,2.48c-1.77,2-2.21,4.11-2.21,13s.46,11.06,2.21,13a7.7,7.7,0,0,0,5.87,2.48A7.54,7.54,0,0,0,194,36.58c1.77-2,2.29-4.11,2.29-13s-.52-11.06-2.29-13m6.71,31.51a18.07,18.07,0,0,1-25.11,0c-4.69-4.68-4.56-10.48-4.56-18.49s0-13.81,4.56-18.49a18.07,18.07,0,0,1,25.11,0c4.69,4.68,4.64,10.48,4.64,18.49s0,13.81-4.64,18.49"/><path id="Shape-4" data-name="Shape" class="cls-1" d="M229.26,8.48H220.8V20.65h8.46a6.13,6.13,0,1,0,0-12.23Zm7,38.23-9.06-18.44H220.8V46.76h-9.06V.47h18.12a14,14,0,0,1,15.06,14.19,12.47,12.47,0,0,1-8.49,12.17l10.37,20Z"/><polygon id="Shape-5" data-name="Shape" class="cls-1" points="288.13 0.42 279.04 0.42 279.04 28.79 260.65 0.42 252.57 0.42 252.57 46.76 261.63 46.76 261.63 18.31 280.02 46.76 288.13 46.76 288.13 0.42"/><polygon id="Shape-6" data-name="Shape" class="cls-1" points="326.88 38.68 305.35 38.68 305.35 27.43 323.69 27.43 323.69 19.37 305.35 19.37 305.35 8.48 326.88 8.48 326.88 0.42 296.29 0.42 296.29 46.76 326.88 46.76 326.88 38.68"/><polygon id="Shape-7" data-name="Shape" class="cls-1" points="364.21 38.68 343.15 38.68 343.15 0.42 334.09 0.42 334.09 46.76 364.21 46.76 364.21 38.68"/><polygon id="Shape-8" data-name="Shape" class="cls-1" points="399.56 38.68 378.49 38.68 378.49 0.42 369.43 0.42 369.43 46.76 399.56 46.76 399.56 38.68"/><polygon id="Shape-9" data-name="Shape" class="cls-1" points="166.3 64.14 132.96 64.14 132.96 72.2 145.1 72.2 145.1 110.48 154.16 110.48 154.16 72.2 166.3 72.2 166.3 64.14"/><polygon id="Shape-10" data-name="Shape" class="cls-1" points="202.9 102.4 181.37 102.4 181.37 91.15 199.68 91.15 199.68 83.06 181.37 83.06 181.37 72.2 202.9 72.2 202.9 64.14 172.28 64.14 172.28 110.48 202.9 110.48 202.9 102.4"/><path id="Shape-11" data-name="Shape" class="cls-1" d="M225.09,110.86a17.13,17.13,0,0,1-12.53-5.06c-4.69-4.68-4.56-10.48-4.56-18.49s0-13.81,4.56-18.49a17.1,17.1,0,0,1,12.53-5.09,16.36,16.36,0,0,1,17.08,14.65H233a7.69,7.69,0,0,0-7.83-6.56,7.51,7.51,0,0,0-5.81,2.42c-1.77,2-2.29,4.17-2.29,13.1s.52,11.14,2.29,13.07a7.51,7.51,0,0,0,5.81,2.42A7.69,7.69,0,0,0,233,96.27h9.2a16.36,16.36,0,0,1-17.08,14.65"/><polygon id="Shape-12" data-name="Shape" class="cls-1" points="282.32 64.14 273.25 64.14 273.25 83.06 257.51 83.06 257.51 64.14 248.45 64.14 248.45 110.48 257.51 110.48 257.51 91.07 273.25 91.07 273.25 110.48 282.32 110.48 282.32 64.14"/></g></g></g></g></g></g></svg>